<mxfile host="app.diagrams.net" agent="Mozilla/5.0 (Windows NT 10.0; Win64; x64) AppleWebKit/537.36 (KHTML, like Gecko) Chrome/128.0.0.0 Safari/537.36" version="24.7.16">
  <diagram id="C5RBs43oDa-KdzZeNtuy" name="Page-1">
    <mxGraphModel dx="1134" dy="649" grid="1" gridSize="10" guides="1" tooltips="1" connect="1" arrows="1" fold="1" page="1" pageScale="1" pageWidth="827" pageHeight="1169" math="0" shadow="0">
      <root>
        <mxCell id="WIyWlLk6GJQsqaUBKTNV-0" />
        <mxCell id="WIyWlLk6GJQsqaUBKTNV-1" parent="WIyWlLk6GJQsqaUBKTNV-0" />
        <mxCell id="WIyWlLk6GJQsqaUBKTNV-2" value="" style="rounded=0;html=1;jettySize=auto;orthogonalLoop=1;fontSize=11;endArrow=block;endFill=0;endSize=8;strokeWidth=1;shadow=0;labelBackgroundColor=none;edgeStyle=orthogonalEdgeStyle;" parent="WIyWlLk6GJQsqaUBKTNV-1" source="WIyWlLk6GJQsqaUBKTNV-3" edge="1">
          <mxGeometry relative="1" as="geometry">
            <mxPoint x="391.87" y="130" as="targetPoint" />
          </mxGeometry>
        </mxCell>
        <mxCell id="WIyWlLk6GJQsqaUBKTNV-3" value="Inicio" style="rounded=1;whiteSpace=wrap;html=1;fontSize=12;glass=0;strokeWidth=1;shadow=0;fillColor=#e3c800;strokeColor=#B09500;fontColor=#000000;" parent="WIyWlLk6GJQsqaUBKTNV-1" vertex="1">
          <mxGeometry x="366.87" y="70" width="50" height="40" as="geometry" />
        </mxCell>
        <mxCell id="tq8VSNoy9a_6PWsCeqps-9" value="" style="edgeStyle=orthogonalEdgeStyle;rounded=0;orthogonalLoop=1;jettySize=auto;html=1;" edge="1" parent="WIyWlLk6GJQsqaUBKTNV-1" source="WIyWlLk6GJQsqaUBKTNV-7">
          <mxGeometry relative="1" as="geometry">
            <mxPoint x="490" y="165" as="targetPoint" />
            <Array as="points">
              <mxPoint x="460" y="165" />
              <mxPoint x="460" y="165" />
            </Array>
          </mxGeometry>
        </mxCell>
        <mxCell id="WIyWlLk6GJQsqaUBKTNV-7" value="Colocar uma escada debaixo da lâmpada queimada" style="rounded=1;whiteSpace=wrap;html=1;fontSize=12;glass=0;strokeWidth=1;shadow=0;fillColor=#dae8fc;gradientColor=#7ea6e0;strokeColor=#6c8ebf;" parent="WIyWlLk6GJQsqaUBKTNV-1" vertex="1">
          <mxGeometry x="331.87" y="140" width="120" height="50" as="geometry" />
        </mxCell>
        <mxCell id="WIyWlLk6GJQsqaUBKTNV-11" value="Fim" style="rounded=1;whiteSpace=wrap;html=1;fontSize=12;glass=0;strokeWidth=1;shadow=0;fillColor=#e3c800;fontColor=#000000;strokeColor=#B09500;" parent="WIyWlLk6GJQsqaUBKTNV-1" vertex="1">
          <mxGeometry x="366.87" y="1020" width="50" height="40" as="geometry" />
        </mxCell>
        <mxCell id="WIyWlLk6GJQsqaUBKTNV-12" value="subir na escada com a lâmpada nova&amp;nbsp;" style="rounded=1;whiteSpace=wrap;html=1;fontSize=12;glass=0;strokeWidth=1;shadow=0;fillColor=#dae8fc;gradientColor=#7ea6e0;strokeColor=#6c8ebf;" parent="WIyWlLk6GJQsqaUBKTNV-1" vertex="1">
          <mxGeometry x="321.87" y="290" width="140" height="50" as="geometry" />
        </mxCell>
        <mxCell id="LX-FdsdNKnB6Xv-rAkmm-3" value="" style="rounded=0;html=1;jettySize=auto;orthogonalLoop=1;fontSize=11;endArrow=block;endFill=0;endSize=8;strokeWidth=1;shadow=0;labelBackgroundColor=none;edgeStyle=orthogonalEdgeStyle;" parent="WIyWlLk6GJQsqaUBKTNV-1" edge="1">
          <mxGeometry relative="1" as="geometry">
            <mxPoint x="391.37" y="190" as="sourcePoint" />
            <mxPoint x="391.37" y="210" as="targetPoint" />
          </mxGeometry>
        </mxCell>
        <mxCell id="tq8VSNoy9a_6PWsCeqps-10" value="" style="edgeStyle=orthogonalEdgeStyle;rounded=0;orthogonalLoop=1;jettySize=auto;html=1;" edge="1" parent="WIyWlLk6GJQsqaUBKTNV-1" source="LX-FdsdNKnB6Xv-rAkmm-4">
          <mxGeometry relative="1" as="geometry">
            <mxPoint x="280" y="240" as="targetPoint" />
            <Array as="points">
              <mxPoint x="290" y="240" />
              <mxPoint x="290" y="240" />
            </Array>
          </mxGeometry>
        </mxCell>
        <mxCell id="LX-FdsdNKnB6Xv-rAkmm-4" value="pegar uma lâmpada nova" style="rounded=1;whiteSpace=wrap;html=1;fontSize=12;glass=0;strokeWidth=1;shadow=0;fillColor=#dae8fc;gradientColor=#7ea6e0;strokeColor=#6c8ebf;" parent="WIyWlLk6GJQsqaUBKTNV-1" vertex="1">
          <mxGeometry x="331.87" y="220" width="120" height="40" as="geometry" />
        </mxCell>
        <mxCell id="LX-FdsdNKnB6Xv-rAkmm-5" value="" style="rounded=0;html=1;jettySize=auto;orthogonalLoop=1;fontSize=11;endArrow=block;endFill=0;endSize=8;strokeWidth=1;shadow=0;labelBackgroundColor=none;edgeStyle=orthogonalEdgeStyle;" parent="WIyWlLk6GJQsqaUBKTNV-1" edge="1">
          <mxGeometry relative="1" as="geometry">
            <mxPoint x="391.39" y="570" as="sourcePoint" />
            <mxPoint x="391.39" y="590" as="targetPoint" />
          </mxGeometry>
        </mxCell>
        <mxCell id="LX-FdsdNKnB6Xv-rAkmm-6" value="" style="rounded=0;html=1;jettySize=auto;orthogonalLoop=1;fontSize=11;endArrow=block;endFill=0;endSize=8;strokeWidth=1;shadow=0;labelBackgroundColor=none;edgeStyle=orthogonalEdgeStyle;" parent="WIyWlLk6GJQsqaUBKTNV-1" edge="1">
          <mxGeometry relative="1" as="geometry">
            <mxPoint x="391.37" y="260" as="sourcePoint" />
            <mxPoint x="391.37" y="280" as="targetPoint" />
          </mxGeometry>
        </mxCell>
        <mxCell id="LX-FdsdNKnB6Xv-rAkmm-7" value="" style="rounded=0;html=1;jettySize=auto;orthogonalLoop=1;fontSize=11;endArrow=block;endFill=0;endSize=8;strokeWidth=1;shadow=0;labelBackgroundColor=none;edgeStyle=orthogonalEdgeStyle;" parent="WIyWlLk6GJQsqaUBKTNV-1" edge="1">
          <mxGeometry relative="1" as="geometry">
            <mxPoint x="391.75" y="410" as="sourcePoint" />
            <mxPoint x="391.75" y="430" as="targetPoint" />
          </mxGeometry>
        </mxCell>
        <mxCell id="LX-FdsdNKnB6Xv-rAkmm-8" value="" style="rounded=0;html=1;jettySize=auto;orthogonalLoop=1;fontSize=11;endArrow=block;endFill=0;endSize=8;strokeWidth=1;shadow=0;labelBackgroundColor=none;edgeStyle=orthogonalEdgeStyle;" parent="WIyWlLk6GJQsqaUBKTNV-1" edge="1">
          <mxGeometry relative="1" as="geometry">
            <mxPoint x="391.39" y="500" as="sourcePoint" />
            <mxPoint x="391.39" y="520" as="targetPoint" />
          </mxGeometry>
        </mxCell>
        <mxCell id="LX-FdsdNKnB6Xv-rAkmm-9" value="" style="rounded=0;html=1;jettySize=auto;orthogonalLoop=1;fontSize=11;endArrow=block;endFill=0;endSize=8;strokeWidth=1;shadow=0;labelBackgroundColor=none;edgeStyle=orthogonalEdgeStyle;" parent="WIyWlLk6GJQsqaUBKTNV-1" edge="1">
          <mxGeometry relative="1" as="geometry">
            <mxPoint x="391.37" y="340" as="sourcePoint" />
            <mxPoint x="391.37" y="360" as="targetPoint" />
          </mxGeometry>
        </mxCell>
        <mxCell id="LX-FdsdNKnB6Xv-rAkmm-10" value="segurar a lâmpada queimada" style="rounded=1;whiteSpace=wrap;html=1;fontSize=12;glass=0;strokeWidth=1;shadow=0;fillColor=#dae8fc;gradientColor=#7ea6e0;strokeColor=#6c8ebf;" parent="WIyWlLk6GJQsqaUBKTNV-1" vertex="1">
          <mxGeometry x="329.37" y="370" width="125" height="40" as="geometry" />
        </mxCell>
        <mxCell id="LX-FdsdNKnB6Xv-rAkmm-11" value="puxar a lâmpada queimada para baixo" style="rounded=1;whiteSpace=wrap;html=1;fontSize=12;glass=0;strokeWidth=1;shadow=0;fillColor=#dae8fc;gradientColor=#7ea6e0;strokeColor=#6c8ebf;" parent="WIyWlLk6GJQsqaUBKTNV-1" vertex="1">
          <mxGeometry x="331.87" y="530" width="120" height="40" as="geometry" />
        </mxCell>
        <mxCell id="LX-FdsdNKnB6Xv-rAkmm-12" value="desrosquear a lampada queimada para o lado esquerdo até ela se soltar" style="rounded=1;whiteSpace=wrap;html=1;fontSize=12;glass=0;strokeWidth=1;shadow=0;fillColor=#dae8fc;gradientColor=#7ea6e0;strokeColor=#6c8ebf;" parent="WIyWlLk6GJQsqaUBKTNV-1" vertex="1">
          <mxGeometry x="315.62" y="440" width="152.5" height="60" as="geometry" />
        </mxCell>
        <mxCell id="LX-FdsdNKnB6Xv-rAkmm-13" value="encaixar a lâmpada nova no lugar" style="rounded=1;whiteSpace=wrap;html=1;fontSize=12;glass=0;strokeWidth=1;shadow=0;fillColor=#dae8fc;gradientColor=#7ea6e0;strokeColor=#6c8ebf;" parent="WIyWlLk6GJQsqaUBKTNV-1" vertex="1">
          <mxGeometry x="334.37" y="600" width="115" height="40" as="geometry" />
        </mxCell>
        <mxCell id="LX-FdsdNKnB6Xv-rAkmm-14" value="rosquear a lâmpada nova para o lado direito até que ela fique firme" style="rounded=1;whiteSpace=wrap;html=1;fontSize=12;glass=0;strokeWidth=1;shadow=0;fillColor=#dae8fc;gradientColor=#7ea6e0;strokeColor=#6c8ebf;" parent="WIyWlLk6GJQsqaUBKTNV-1" vertex="1">
          <mxGeometry x="316.87" y="670" width="150" height="60" as="geometry" />
        </mxCell>
        <mxCell id="LX-FdsdNKnB6Xv-rAkmm-15" value="soltar a lâmpada&amp;nbsp;" style="rounded=1;whiteSpace=wrap;html=1;fontSize=12;glass=0;strokeWidth=1;shadow=0;fillColor=#dae8fc;gradientColor=#7ea6e0;strokeColor=#6c8ebf;" parent="WIyWlLk6GJQsqaUBKTNV-1" vertex="1">
          <mxGeometry x="339.37" y="830" width="105" height="30" as="geometry" />
        </mxCell>
        <mxCell id="LX-FdsdNKnB6Xv-rAkmm-16" value="verificar se a lâmpada está bem presa" style="rounded=1;whiteSpace=wrap;html=1;fontSize=12;glass=0;strokeWidth=1;shadow=0;fillColor=#dae8fc;gradientColor=#7ea6e0;strokeColor=#6c8ebf;" parent="WIyWlLk6GJQsqaUBKTNV-1" vertex="1">
          <mxGeometry x="331.87" y="760" width="120" height="40" as="geometry" />
        </mxCell>
        <mxCell id="LX-FdsdNKnB6Xv-rAkmm-17" value="desparafuse os quatro parafusos para o lado esquerdo" style="rounded=1;whiteSpace=wrap;html=1;fontSize=12;glass=0;strokeWidth=1;shadow=0;fillColor=#dae8fc;gradientColor=#7ea6e0;strokeColor=#6c8ebf;" parent="WIyWlLk6GJQsqaUBKTNV-1" vertex="1">
          <mxGeometry x="298.12" y="1658" width="130" height="50" as="geometry" />
        </mxCell>
        <mxCell id="LX-FdsdNKnB6Xv-rAkmm-18" value="descer da escada" style="rounded=1;whiteSpace=wrap;html=1;fontSize=12;glass=0;strokeWidth=1;shadow=0;fillColor=#dae8fc;gradientColor=#7ea6e0;strokeColor=#6c8ebf;" parent="WIyWlLk6GJQsqaUBKTNV-1" vertex="1">
          <mxGeometry x="339.37" y="890" width="105" height="30" as="geometry" />
        </mxCell>
        <mxCell id="LX-FdsdNKnB6Xv-rAkmm-19" value="descartar a lâmpada queimada" style="rounded=1;whiteSpace=wrap;html=1;fontSize=12;glass=0;strokeWidth=1;shadow=0;fillColor=#dae8fc;gradientColor=#7ea6e0;strokeColor=#6c8ebf;" parent="WIyWlLk6GJQsqaUBKTNV-1" vertex="1">
          <mxGeometry x="331.87" y="950" width="120" height="40" as="geometry" />
        </mxCell>
        <mxCell id="LX-FdsdNKnB6Xv-rAkmm-21" value="" style="rounded=0;html=1;jettySize=auto;orthogonalLoop=1;fontSize=11;endArrow=block;endFill=0;endSize=8;strokeWidth=1;shadow=0;labelBackgroundColor=none;edgeStyle=orthogonalEdgeStyle;" parent="WIyWlLk6GJQsqaUBKTNV-1" edge="1">
          <mxGeometry relative="1" as="geometry">
            <mxPoint x="391.39" y="990" as="sourcePoint" />
            <mxPoint x="391.39" y="1010" as="targetPoint" />
          </mxGeometry>
        </mxCell>
        <mxCell id="LX-FdsdNKnB6Xv-rAkmm-22" value="" style="rounded=0;html=1;jettySize=auto;orthogonalLoop=1;fontSize=11;endArrow=block;endFill=0;endSize=8;strokeWidth=1;shadow=0;labelBackgroundColor=none;edgeStyle=orthogonalEdgeStyle;" parent="WIyWlLk6GJQsqaUBKTNV-1" edge="1">
          <mxGeometry relative="1" as="geometry">
            <mxPoint x="391.39" y="920" as="sourcePoint" />
            <mxPoint x="391.39" y="940" as="targetPoint" />
          </mxGeometry>
        </mxCell>
        <mxCell id="LX-FdsdNKnB6Xv-rAkmm-23" value="" style="rounded=0;html=1;jettySize=auto;orthogonalLoop=1;fontSize=11;endArrow=block;endFill=0;endSize=8;strokeWidth=1;shadow=0;labelBackgroundColor=none;edgeStyle=orthogonalEdgeStyle;" parent="WIyWlLk6GJQsqaUBKTNV-1" edge="1">
          <mxGeometry relative="1" as="geometry">
            <mxPoint x="391.39" y="860" as="sourcePoint" />
            <mxPoint x="391.39" y="880" as="targetPoint" />
          </mxGeometry>
        </mxCell>
        <mxCell id="LX-FdsdNKnB6Xv-rAkmm-24" value="" style="rounded=0;html=1;jettySize=auto;orthogonalLoop=1;fontSize=11;endArrow=block;endFill=0;endSize=8;strokeWidth=1;shadow=0;labelBackgroundColor=none;edgeStyle=orthogonalEdgeStyle;" parent="WIyWlLk6GJQsqaUBKTNV-1" edge="1">
          <mxGeometry relative="1" as="geometry">
            <mxPoint x="391.39" y="800" as="sourcePoint" />
            <mxPoint x="391.39" y="820" as="targetPoint" />
          </mxGeometry>
        </mxCell>
        <mxCell id="LX-FdsdNKnB6Xv-rAkmm-25" value="" style="rounded=0;html=1;jettySize=auto;orthogonalLoop=1;fontSize=11;endArrow=block;endFill=0;endSize=8;strokeWidth=1;shadow=0;labelBackgroundColor=none;edgeStyle=orthogonalEdgeStyle;" parent="WIyWlLk6GJQsqaUBKTNV-1" edge="1">
          <mxGeometry relative="1" as="geometry">
            <mxPoint x="391.39" y="730" as="sourcePoint" />
            <mxPoint x="391.39" y="750" as="targetPoint" />
          </mxGeometry>
        </mxCell>
        <mxCell id="LX-FdsdNKnB6Xv-rAkmm-26" value="" style="rounded=0;html=1;jettySize=auto;orthogonalLoop=1;fontSize=11;endArrow=block;endFill=0;endSize=8;strokeWidth=1;shadow=0;labelBackgroundColor=none;edgeStyle=orthogonalEdgeStyle;" parent="WIyWlLk6GJQsqaUBKTNV-1" edge="1">
          <mxGeometry relative="1" as="geometry">
            <mxPoint x="391.39" y="640" as="sourcePoint" />
            <mxPoint x="391.39" y="660" as="targetPoint" />
          </mxGeometry>
        </mxCell>
        <mxCell id="LX-FdsdNKnB6Xv-rAkmm-29" value="Inicio" style="rounded=1;whiteSpace=wrap;html=1;fontSize=12;glass=0;strokeWidth=1;shadow=0;fillColor=#e3c800;strokeColor=#B09500;fontColor=#000000;" parent="WIyWlLk6GJQsqaUBKTNV-1" vertex="1">
          <mxGeometry x="335.62" y="1220" width="50" height="30" as="geometry" />
        </mxCell>
        <mxCell id="LX-FdsdNKnB6Xv-rAkmm-30" value="" style="rounded=0;html=1;jettySize=auto;orthogonalLoop=1;fontSize=11;endArrow=block;endFill=0;endSize=8;strokeWidth=1;shadow=0;labelBackgroundColor=none;edgeStyle=orthogonalEdgeStyle;" parent="WIyWlLk6GJQsqaUBKTNV-1" edge="1">
          <mxGeometry relative="1" as="geometry">
            <mxPoint x="360.14" y="1248" as="sourcePoint" />
            <mxPoint x="360.14" y="1268" as="targetPoint" />
          </mxGeometry>
        </mxCell>
        <mxCell id="tq8VSNoy9a_6PWsCeqps-30" value="" style="edgeStyle=orthogonalEdgeStyle;rounded=0;orthogonalLoop=1;jettySize=auto;html=1;" edge="1" parent="WIyWlLk6GJQsqaUBKTNV-1" source="LX-FdsdNKnB6Xv-rAkmm-31">
          <mxGeometry relative="1" as="geometry">
            <mxPoint x="480" y="1280" as="targetPoint" />
          </mxGeometry>
        </mxCell>
        <mxCell id="LX-FdsdNKnB6Xv-rAkmm-31" value="vá até o carro parado" style="rounded=1;whiteSpace=wrap;html=1;fontSize=12;glass=0;strokeWidth=1;shadow=0;fillColor=#dae8fc;strokeColor=#6c8ebf;gradientColor=#7ea6e0;" parent="WIyWlLk6GJQsqaUBKTNV-1" vertex="1">
          <mxGeometry x="300.62" y="1278" width="120" height="30" as="geometry" />
        </mxCell>
        <mxCell id="tq8VSNoy9a_6PWsCeqps-44" value="" style="edgeStyle=orthogonalEdgeStyle;rounded=0;orthogonalLoop=1;jettySize=auto;html=1;" edge="1" parent="WIyWlLk6GJQsqaUBKTNV-1">
          <mxGeometry relative="1" as="geometry">
            <mxPoint x="300.62" y="1428" as="sourcePoint" />
            <mxPoint x="229.75409836065586" y="1396" as="targetPoint" />
            <Array as="points">
              <mxPoint x="270" y="1428" />
              <mxPoint x="270" y="1396" />
            </Array>
          </mxGeometry>
        </mxCell>
        <mxCell id="LX-FdsdNKnB6Xv-rAkmm-32" value="pegar uma chave de rodas" style="rounded=1;whiteSpace=wrap;html=1;fontSize=12;glass=0;strokeWidth=1;shadow=0;fillColor=#dae8fc;gradientColor=#7ea6e0;strokeColor=#6c8ebf;" parent="WIyWlLk6GJQsqaUBKTNV-1" vertex="1">
          <mxGeometry x="300.62" y="1408" width="125" height="40" as="geometry" />
        </mxCell>
        <mxCell id="LX-FdsdNKnB6Xv-rAkmm-33" value="" style="rounded=0;html=1;jettySize=auto;orthogonalLoop=1;fontSize=11;endArrow=block;endFill=0;endSize=8;strokeWidth=1;shadow=0;labelBackgroundColor=none;edgeStyle=orthogonalEdgeStyle;" parent="WIyWlLk6GJQsqaUBKTNV-1" edge="1">
          <mxGeometry relative="1" as="geometry">
            <mxPoint x="360.14" y="1308" as="sourcePoint" />
            <mxPoint x="360.14" y="1328" as="targetPoint" />
          </mxGeometry>
        </mxCell>
        <mxCell id="tq8VSNoy9a_6PWsCeqps-48" value="" style="edgeStyle=orthogonalEdgeStyle;rounded=0;orthogonalLoop=1;jettySize=auto;html=1;" edge="1" parent="WIyWlLk6GJQsqaUBKTNV-1" source="LX-FdsdNKnB6Xv-rAkmm-34" target="tq8VSNoy9a_6PWsCeqps-38">
          <mxGeometry relative="1" as="geometry" />
        </mxCell>
        <mxCell id="LX-FdsdNKnB6Xv-rAkmm-34" value="coloque o macaco próximo ao pneu" style="rounded=1;whiteSpace=wrap;html=1;fontSize=12;glass=0;strokeWidth=1;shadow=0;fillColor=#dae8fc;gradientColor=#7ea6e0;strokeColor=#6c8ebf;" parent="WIyWlLk6GJQsqaUBKTNV-1" vertex="1">
          <mxGeometry x="303.12" y="1338" width="120" height="40" as="geometry" />
        </mxCell>
        <mxCell id="LX-FdsdNKnB6Xv-rAkmm-35" value="" style="rounded=0;html=1;jettySize=auto;orthogonalLoop=1;fontSize=11;endArrow=block;endFill=0;endSize=8;strokeWidth=1;shadow=0;labelBackgroundColor=none;edgeStyle=orthogonalEdgeStyle;" parent="WIyWlLk6GJQsqaUBKTNV-1" edge="1">
          <mxGeometry relative="1" as="geometry">
            <mxPoint x="360.14" y="1628" as="sourcePoint" />
            <mxPoint x="360.14" y="1648" as="targetPoint" />
          </mxGeometry>
        </mxCell>
        <mxCell id="LX-FdsdNKnB6Xv-rAkmm-36" value="" style="rounded=0;html=1;jettySize=auto;orthogonalLoop=1;fontSize=11;endArrow=block;endFill=0;endSize=8;strokeWidth=1;shadow=0;labelBackgroundColor=none;edgeStyle=orthogonalEdgeStyle;" parent="WIyWlLk6GJQsqaUBKTNV-1" edge="1">
          <mxGeometry relative="1" as="geometry">
            <mxPoint x="360.14" y="1378" as="sourcePoint" />
            <mxPoint x="360.14" y="1398" as="targetPoint" />
          </mxGeometry>
        </mxCell>
        <mxCell id="LX-FdsdNKnB6Xv-rAkmm-37" value="" style="rounded=0;html=1;jettySize=auto;orthogonalLoop=1;fontSize=11;endArrow=block;endFill=0;endSize=8;strokeWidth=1;shadow=0;labelBackgroundColor=none;edgeStyle=orthogonalEdgeStyle;" parent="WIyWlLk6GJQsqaUBKTNV-1" edge="1">
          <mxGeometry relative="1" as="geometry">
            <mxPoint x="360.14" y="1508" as="sourcePoint" />
            <mxPoint x="360.14" y="1528" as="targetPoint" />
          </mxGeometry>
        </mxCell>
        <mxCell id="LX-FdsdNKnB6Xv-rAkmm-38" value="" style="rounded=0;html=1;jettySize=auto;orthogonalLoop=1;fontSize=11;endArrow=block;endFill=0;endSize=8;strokeWidth=1;shadow=0;labelBackgroundColor=none;edgeStyle=orthogonalEdgeStyle;" parent="WIyWlLk6GJQsqaUBKTNV-1" edge="1">
          <mxGeometry relative="1" as="geometry">
            <mxPoint x="360.14" y="1568" as="sourcePoint" />
            <mxPoint x="360.14" y="1588" as="targetPoint" />
          </mxGeometry>
        </mxCell>
        <mxCell id="LX-FdsdNKnB6Xv-rAkmm-39" value="" style="rounded=0;html=1;jettySize=auto;orthogonalLoop=1;fontSize=11;endArrow=block;endFill=0;endSize=8;strokeWidth=1;shadow=0;labelBackgroundColor=none;edgeStyle=orthogonalEdgeStyle;" parent="WIyWlLk6GJQsqaUBKTNV-1" edge="1">
          <mxGeometry relative="1" as="geometry">
            <mxPoint x="360.14" y="1448" as="sourcePoint" />
            <mxPoint x="360.14" y="1468" as="targetPoint" />
          </mxGeometry>
        </mxCell>
        <mxCell id="LX-FdsdNKnB6Xv-rAkmm-40" value="vai até o pneu furado" style="rounded=1;whiteSpace=wrap;html=1;fontSize=12;glass=0;strokeWidth=1;shadow=0;fillColor=#dae8fc;gradientColor=#7ea6e0;strokeColor=#6c8ebf;" parent="WIyWlLk6GJQsqaUBKTNV-1" vertex="1">
          <mxGeometry x="303.12" y="1478" width="125" height="30" as="geometry" />
        </mxCell>
        <mxCell id="LX-FdsdNKnB6Xv-rAkmm-41" value="levante o carro" style="rounded=1;whiteSpace=wrap;html=1;fontSize=12;glass=0;strokeWidth=1;shadow=0;fillColor=#dae8fc;gradientColor=#7ea6e0;strokeColor=#6c8ebf;" parent="WIyWlLk6GJQsqaUBKTNV-1" vertex="1">
          <mxGeometry x="315.62" y="1598" width="95" height="30" as="geometry" />
        </mxCell>
        <mxCell id="LX-FdsdNKnB6Xv-rAkmm-42" value="afrouxe os parafusos" style="rounded=1;whiteSpace=wrap;html=1;fontSize=12;glass=0;strokeWidth=1;shadow=0;fillColor=#dae8fc;gradientColor=#7ea6e0;strokeColor=#6c8ebf;" parent="WIyWlLk6GJQsqaUBKTNV-1" vertex="1">
          <mxGeometry x="300.62" y="1538" width="131.25" height="30" as="geometry" />
        </mxCell>
        <mxCell id="LX-FdsdNKnB6Xv-rAkmm-43" value="tire os quatro parafusos da roda do carro" style="rounded=1;whiteSpace=wrap;html=1;fontSize=12;glass=0;strokeWidth=1;shadow=0;fillColor=#dae8fc;gradientColor=#7ea6e0;strokeColor=#6c8ebf;" parent="WIyWlLk6GJQsqaUBKTNV-1" vertex="1">
          <mxGeometry x="303.12" y="1738" width="115" height="50" as="geometry" />
        </mxCell>
        <mxCell id="LX-FdsdNKnB6Xv-rAkmm-44" value="" style="rounded=0;html=1;jettySize=auto;orthogonalLoop=1;fontSize=11;endArrow=block;endFill=0;endSize=8;strokeWidth=1;shadow=0;labelBackgroundColor=none;edgeStyle=orthogonalEdgeStyle;" parent="WIyWlLk6GJQsqaUBKTNV-1" edge="1">
          <mxGeometry relative="1" as="geometry">
            <mxPoint x="360.14" y="1788" as="sourcePoint" />
            <mxPoint x="360.14" y="1808" as="targetPoint" />
          </mxGeometry>
        </mxCell>
        <mxCell id="LX-FdsdNKnB6Xv-rAkmm-46" value="" style="rounded=0;html=1;jettySize=auto;orthogonalLoop=1;fontSize=11;endArrow=block;endFill=0;endSize=8;strokeWidth=1;shadow=0;labelBackgroundColor=none;edgeStyle=orthogonalEdgeStyle;" parent="WIyWlLk6GJQsqaUBKTNV-1" edge="1">
          <mxGeometry relative="1" as="geometry">
            <mxPoint x="360.14" y="1928" as="sourcePoint" />
            <mxPoint x="360.14" y="1948" as="targetPoint" />
          </mxGeometry>
        </mxCell>
        <mxCell id="LX-FdsdNKnB6Xv-rAkmm-47" value="" style="rounded=0;html=1;jettySize=auto;orthogonalLoop=1;fontSize=11;endArrow=block;endFill=0;endSize=8;strokeWidth=1;shadow=0;labelBackgroundColor=none;edgeStyle=orthogonalEdgeStyle;" parent="WIyWlLk6GJQsqaUBKTNV-1" edge="1">
          <mxGeometry relative="1" as="geometry">
            <mxPoint x="360.14" y="1998" as="sourcePoint" />
            <mxPoint x="360.14" y="2018" as="targetPoint" />
          </mxGeometry>
        </mxCell>
        <mxCell id="LX-FdsdNKnB6Xv-rAkmm-48" value="" style="rounded=0;html=1;jettySize=auto;orthogonalLoop=1;fontSize=11;endArrow=block;endFill=0;endSize=8;strokeWidth=1;shadow=0;labelBackgroundColor=none;edgeStyle=orthogonalEdgeStyle;" parent="WIyWlLk6GJQsqaUBKTNV-1" edge="1">
          <mxGeometry relative="1" as="geometry">
            <mxPoint x="360.14" y="1858" as="sourcePoint" />
            <mxPoint x="360.14" y="1878" as="targetPoint" />
          </mxGeometry>
        </mxCell>
        <mxCell id="LX-FdsdNKnB6Xv-rAkmm-49" value="" style="rounded=0;html=1;jettySize=auto;orthogonalLoop=1;fontSize=11;endArrow=block;endFill=0;endSize=8;strokeWidth=1;shadow=0;labelBackgroundColor=none;edgeStyle=orthogonalEdgeStyle;" parent="WIyWlLk6GJQsqaUBKTNV-1" edge="1">
          <mxGeometry relative="1" as="geometry">
            <mxPoint x="360.14" y="2088" as="sourcePoint" />
            <mxPoint x="360.14" y="2108" as="targetPoint" />
          </mxGeometry>
        </mxCell>
        <mxCell id="LX-FdsdNKnB6Xv-rAkmm-50" value="" style="rounded=0;html=1;jettySize=auto;orthogonalLoop=1;fontSize=11;endArrow=block;endFill=0;endSize=8;strokeWidth=1;shadow=0;labelBackgroundColor=none;edgeStyle=orthogonalEdgeStyle;" parent="WIyWlLk6GJQsqaUBKTNV-1" edge="1">
          <mxGeometry relative="1" as="geometry">
            <mxPoint x="360.14" y="1708" as="sourcePoint" />
            <mxPoint x="360.14" y="1728" as="targetPoint" />
          </mxGeometry>
        </mxCell>
        <mxCell id="LX-FdsdNKnB6Xv-rAkmm-51" value="troque o pneu ruim por um novo&amp;nbsp;" style="rounded=1;whiteSpace=wrap;html=1;fontSize=12;glass=0;strokeWidth=1;shadow=0;fillColor=#dae8fc;gradientColor=#7ea6e0;strokeColor=#6c8ebf;" parent="WIyWlLk6GJQsqaUBKTNV-1" vertex="1">
          <mxGeometry x="293.12" y="1958" width="132.5" height="40" as="geometry" />
        </mxCell>
        <mxCell id="LX-FdsdNKnB6Xv-rAkmm-52" value="tire o pneu ruim do carro" style="rounded=1;whiteSpace=wrap;html=1;fontSize=12;glass=0;strokeWidth=1;shadow=0;fillColor=#dae8fc;gradientColor=#7ea6e0;strokeColor=#6c8ebf;" parent="WIyWlLk6GJQsqaUBKTNV-1" vertex="1">
          <mxGeometry x="300.62" y="1888" width="115" height="40" as="geometry" />
        </mxCell>
        <mxCell id="LX-FdsdNKnB6Xv-rAkmm-53" value="guarde os parafusos em um lugar&amp;nbsp; seguro" style="rounded=1;whiteSpace=wrap;html=1;fontSize=12;glass=0;strokeWidth=1;shadow=0;fillColor=#dae8fc;gradientColor=#7ea6e0;strokeColor=#6c8ebf;" parent="WIyWlLk6GJQsqaUBKTNV-1" vertex="1">
          <mxGeometry x="300.62" y="1818" width="125" height="40" as="geometry" />
        </mxCell>
        <mxCell id="LX-FdsdNKnB6Xv-rAkmm-54" value="parafuse os quatro parafusos do pneu novo para o lado direito" style="rounded=1;whiteSpace=wrap;html=1;fontSize=12;glass=0;strokeWidth=1;shadow=0;fillColor=#dae8fc;gradientColor=#7ea6e0;strokeColor=#6c8ebf;" parent="WIyWlLk6GJQsqaUBKTNV-1" vertex="1">
          <mxGeometry x="290" y="2028" width="138.75" height="60" as="geometry" />
        </mxCell>
        <mxCell id="LX-FdsdNKnB6Xv-rAkmm-55" value="tire o macaco debaixo do carro" style="rounded=1;whiteSpace=wrap;html=1;fontSize=12;glass=0;strokeWidth=1;shadow=0;fillColor=#dae8fc;gradientColor=#7ea6e0;strokeColor=#6c8ebf;" parent="WIyWlLk6GJQsqaUBKTNV-1" vertex="1">
          <mxGeometry x="298.12" y="2178" width="125" height="40" as="geometry" />
        </mxCell>
        <mxCell id="LX-FdsdNKnB6Xv-rAkmm-56" value="desça o carro" style="rounded=1;whiteSpace=wrap;html=1;fontSize=12;glass=0;strokeWidth=1;shadow=0;fillColor=#dae8fc;gradientColor=#7ea6e0;strokeColor=#6c8ebf;" parent="WIyWlLk6GJQsqaUBKTNV-1" vertex="1">
          <mxGeometry x="310" y="2118" width="98.75" height="30" as="geometry" />
        </mxCell>
        <mxCell id="LX-FdsdNKnB6Xv-rAkmm-59" value="" style="rounded=0;html=1;jettySize=auto;orthogonalLoop=1;fontSize=11;endArrow=block;endFill=0;endSize=8;strokeWidth=1;shadow=0;labelBackgroundColor=none;edgeStyle=orthogonalEdgeStyle;" parent="WIyWlLk6GJQsqaUBKTNV-1" edge="1">
          <mxGeometry relative="1" as="geometry">
            <mxPoint x="358.89" y="2218" as="sourcePoint" />
            <mxPoint x="358.89" y="2238" as="targetPoint" />
          </mxGeometry>
        </mxCell>
        <mxCell id="LX-FdsdNKnB6Xv-rAkmm-60" value="" style="rounded=0;html=1;jettySize=auto;orthogonalLoop=1;fontSize=11;endArrow=block;endFill=0;endSize=8;strokeWidth=1;shadow=0;labelBackgroundColor=none;edgeStyle=orthogonalEdgeStyle;" parent="WIyWlLk6GJQsqaUBKTNV-1" edge="1">
          <mxGeometry relative="1" as="geometry">
            <mxPoint x="358.9" y="2148" as="sourcePoint" />
            <mxPoint x="358.9" y="2168" as="targetPoint" />
          </mxGeometry>
        </mxCell>
        <mxCell id="LX-FdsdNKnB6Xv-rAkmm-61" value="descarte o pneu ruim" style="rounded=1;whiteSpace=wrap;html=1;fontSize=12;glass=0;strokeWidth=1;shadow=0;fillColor=#dae8fc;gradientColor=#7ea6e0;strokeColor=#6c8ebf;" parent="WIyWlLk6GJQsqaUBKTNV-1" vertex="1">
          <mxGeometry x="296.88" y="2248" width="125" height="30" as="geometry" />
        </mxCell>
        <mxCell id="LX-FdsdNKnB6Xv-rAkmm-62" value="" style="rounded=0;html=1;jettySize=auto;orthogonalLoop=1;fontSize=11;endArrow=block;endFill=0;endSize=8;strokeWidth=1;shadow=0;labelBackgroundColor=none;edgeStyle=orthogonalEdgeStyle;" parent="WIyWlLk6GJQsqaUBKTNV-1" edge="1">
          <mxGeometry relative="1" as="geometry">
            <mxPoint x="360.14" y="2278" as="sourcePoint" />
            <mxPoint x="360.14" y="2298" as="targetPoint" />
          </mxGeometry>
        </mxCell>
        <mxCell id="LX-FdsdNKnB6Xv-rAkmm-63" value="Fim" style="rounded=1;whiteSpace=wrap;html=1;fontSize=12;glass=0;strokeWidth=1;shadow=0;fillColor=#e3c800;fontColor=#000000;strokeColor=#B09500;" parent="WIyWlLk6GJQsqaUBKTNV-1" vertex="1">
          <mxGeometry x="334.37" y="2307" width="50" height="31" as="geometry" />
        </mxCell>
        <mxCell id="tq8VSNoy9a_6PWsCeqps-17" value="Não" style="edgeStyle=orthogonalEdgeStyle;rounded=0;orthogonalLoop=1;jettySize=auto;html=1;" edge="1" parent="WIyWlLk6GJQsqaUBKTNV-1" source="tq8VSNoy9a_6PWsCeqps-1">
          <mxGeometry relative="1" as="geometry">
            <mxPoint x="110" y="280" as="targetPoint" />
            <Array as="points">
              <mxPoint x="135" y="240" />
              <mxPoint x="135" y="240" />
            </Array>
          </mxGeometry>
        </mxCell>
        <mxCell id="tq8VSNoy9a_6PWsCeqps-19" value="Sim" style="edgeStyle=orthogonalEdgeStyle;rounded=0;orthogonalLoop=1;jettySize=auto;html=1;" edge="1" parent="WIyWlLk6GJQsqaUBKTNV-1" source="tq8VSNoy9a_6PWsCeqps-1">
          <mxGeometry relative="1" as="geometry">
            <mxPoint x="310" y="320" as="targetPoint" />
            <Array as="points">
              <mxPoint x="225" y="320" />
            </Array>
          </mxGeometry>
        </mxCell>
        <mxCell id="tq8VSNoy9a_6PWsCeqps-1" value="Tem uma lâmpada?" style="rhombus;whiteSpace=wrap;html=1;fillColor=#dae8fc;strokeColor=#6c8ebf;" vertex="1" parent="WIyWlLk6GJQsqaUBKTNV-1">
          <mxGeometry x="180" y="195" width="90" height="90" as="geometry" />
        </mxCell>
        <mxCell id="tq8VSNoy9a_6PWsCeqps-12" value="Não" style="edgeStyle=orthogonalEdgeStyle;rounded=0;orthogonalLoop=1;jettySize=auto;html=1;" edge="1" parent="WIyWlLk6GJQsqaUBKTNV-1" source="tq8VSNoy9a_6PWsCeqps-2">
          <mxGeometry relative="1" as="geometry">
            <mxPoint x="640" y="160" as="targetPoint" />
          </mxGeometry>
        </mxCell>
        <mxCell id="tq8VSNoy9a_6PWsCeqps-2" value="Tem uma escada?" style="rhombus;whiteSpace=wrap;html=1;fillColor=#dae8fc;strokeColor=#6c8ebf;" vertex="1" parent="WIyWlLk6GJQsqaUBKTNV-1">
          <mxGeometry x="500" y="115" width="90" height="90" as="geometry" />
        </mxCell>
        <mxCell id="tq8VSNoy9a_6PWsCeqps-11" value="" style="edgeStyle=orthogonalEdgeStyle;rounded=0;orthogonalLoop=1;jettySize=auto;html=1;" edge="1" parent="WIyWlLk6GJQsqaUBKTNV-1" source="tq8VSNoy9a_6PWsCeqps-5" target="tq8VSNoy9a_6PWsCeqps-7">
          <mxGeometry relative="1" as="geometry" />
        </mxCell>
        <mxCell id="tq8VSNoy9a_6PWsCeqps-5" value="pegar uma lâmpada nova" style="rounded=1;whiteSpace=wrap;html=1;fontSize=12;glass=0;strokeWidth=1;shadow=0;fillColor=#dae8fc;gradientColor=#7ea6e0;strokeColor=#6c8ebf;" vertex="1" parent="WIyWlLk6GJQsqaUBKTNV-1">
          <mxGeometry x="50" y="290" width="120" height="40" as="geometry" />
        </mxCell>
        <mxCell id="tq8VSNoy9a_6PWsCeqps-14" value="" style="edgeStyle=orthogonalEdgeStyle;rounded=0;orthogonalLoop=1;jettySize=auto;html=1;" edge="1" parent="WIyWlLk6GJQsqaUBKTNV-1" source="tq8VSNoy9a_6PWsCeqps-6">
          <mxGeometry relative="1" as="geometry">
            <mxPoint x="707" y="210" as="targetPoint" />
            <Array as="points">
              <mxPoint x="708" y="190" />
              <mxPoint x="708" y="190" />
            </Array>
          </mxGeometry>
        </mxCell>
        <mxCell id="tq8VSNoy9a_6PWsCeqps-6" value="pedir emprestado pra alguém" style="rounded=1;whiteSpace=wrap;html=1;fontSize=12;glass=0;strokeWidth=1;shadow=0;fillColor=#dae8fc;gradientColor=#7ea6e0;strokeColor=#6c8ebf;" vertex="1" parent="WIyWlLk6GJQsqaUBKTNV-1">
          <mxGeometry x="647.5" y="140" width="120" height="40" as="geometry" />
        </mxCell>
        <mxCell id="tq8VSNoy9a_6PWsCeqps-21" value="" style="edgeStyle=orthogonalEdgeStyle;rounded=0;orthogonalLoop=1;jettySize=auto;html=1;" edge="1" parent="WIyWlLk6GJQsqaUBKTNV-1" source="tq8VSNoy9a_6PWsCeqps-7">
          <mxGeometry relative="1" as="geometry">
            <mxPoint x="220" y="320" as="targetPoint" />
            <Array as="points">
              <mxPoint x="200" y="415" />
              <mxPoint x="200" y="320" />
            </Array>
          </mxGeometry>
        </mxCell>
        <mxCell id="tq8VSNoy9a_6PWsCeqps-23" value="" style="edgeStyle=orthogonalEdgeStyle;rounded=0;orthogonalLoop=1;jettySize=auto;html=1;" edge="1" parent="WIyWlLk6GJQsqaUBKTNV-1" source="tq8VSNoy9a_6PWsCeqps-7">
          <mxGeometry relative="1" as="geometry">
            <mxPoint x="350" y="1040" as="targetPoint" />
            <Array as="points">
              <mxPoint x="110" y="1040" />
            </Array>
          </mxGeometry>
        </mxCell>
        <mxCell id="tq8VSNoy9a_6PWsCeqps-7" value="Conseguiu ligar?" style="rhombus;whiteSpace=wrap;html=1;fillColor=#dae8fc;strokeColor=#6c8ebf;" vertex="1" parent="WIyWlLk6GJQsqaUBKTNV-1">
          <mxGeometry x="65" y="370" width="90" height="90" as="geometry" />
        </mxCell>
        <mxCell id="tq8VSNoy9a_6PWsCeqps-25" value="Sim" style="edgeStyle=orthogonalEdgeStyle;rounded=0;orthogonalLoop=1;jettySize=auto;html=1;" edge="1" parent="WIyWlLk6GJQsqaUBKTNV-1" source="tq8VSNoy9a_6PWsCeqps-13">
          <mxGeometry relative="1" as="geometry">
            <mxPoint x="460" y="240" as="targetPoint" />
          </mxGeometry>
        </mxCell>
        <mxCell id="tq8VSNoy9a_6PWsCeqps-28" value="" style="edgeStyle=orthogonalEdgeStyle;rounded=0;orthogonalLoop=1;jettySize=auto;html=1;" edge="1" parent="WIyWlLk6GJQsqaUBKTNV-1">
          <mxGeometry relative="1" as="geometry">
            <mxPoint x="705.6438095238094" y="309.9973242630383" as="sourcePoint" />
            <mxPoint x="430" y="1040" as="targetPoint" />
            <Array as="points">
              <mxPoint x="706.12" y="1040.02" />
            </Array>
          </mxGeometry>
        </mxCell>
        <mxCell id="tq8VSNoy9a_6PWsCeqps-13" value="Conseguiu uma escada?" style="rhombus;whiteSpace=wrap;html=1;fillColor=#dae8fc;strokeColor=#6c8ebf;" vertex="1" parent="WIyWlLk6GJQsqaUBKTNV-1">
          <mxGeometry x="655" y="220" width="105" height="100" as="geometry" />
        </mxCell>
        <mxCell id="tq8VSNoy9a_6PWsCeqps-26" value="" style="endArrow=none;html=1;rounded=0;entryX=0.5;entryY=1;entryDx=0;entryDy=0;" edge="1" parent="WIyWlLk6GJQsqaUBKTNV-1" target="tq8VSNoy9a_6PWsCeqps-2">
          <mxGeometry width="50" height="50" relative="1" as="geometry">
            <mxPoint x="545" y="240" as="sourcePoint" />
            <mxPoint x="544.52" y="220" as="targetPoint" />
          </mxGeometry>
        </mxCell>
        <mxCell id="tq8VSNoy9a_6PWsCeqps-32" value="Sim" style="edgeStyle=orthogonalEdgeStyle;rounded=0;orthogonalLoop=1;jettySize=auto;html=1;" edge="1" parent="WIyWlLk6GJQsqaUBKTNV-1" source="tq8VSNoy9a_6PWsCeqps-29">
          <mxGeometry relative="1" as="geometry">
            <mxPoint x="430" y="1360" as="targetPoint" />
            <Array as="points">
              <mxPoint x="550" y="1360" />
            </Array>
          </mxGeometry>
        </mxCell>
        <mxCell id="tq8VSNoy9a_6PWsCeqps-34" value="Não" style="edgeStyle=orthogonalEdgeStyle;rounded=0;orthogonalLoop=1;jettySize=auto;html=1;" edge="1" parent="WIyWlLk6GJQsqaUBKTNV-1" source="tq8VSNoy9a_6PWsCeqps-29">
          <mxGeometry relative="1" as="geometry">
            <mxPoint x="650" y="1274" as="targetPoint" />
          </mxGeometry>
        </mxCell>
        <mxCell id="tq8VSNoy9a_6PWsCeqps-29" value="Tá parado em&amp;nbsp;&lt;div&gt;um lugar&amp;nbsp;&lt;/div&gt;&lt;div&gt;segura?&lt;/div&gt;" style="rhombus;whiteSpace=wrap;html=1;fillColor=#dae8fc;strokeColor=#6c8ebf;" vertex="1" parent="WIyWlLk6GJQsqaUBKTNV-1">
          <mxGeometry x="490" y="1230" width="110" height="88.5" as="geometry" />
        </mxCell>
        <mxCell id="tq8VSNoy9a_6PWsCeqps-43" value="" style="edgeStyle=orthogonalEdgeStyle;rounded=0;orthogonalLoop=1;jettySize=auto;html=1;" edge="1" parent="WIyWlLk6GJQsqaUBKTNV-1" source="tq8VSNoy9a_6PWsCeqps-35">
          <mxGeometry relative="1" as="geometry">
            <mxPoint x="550" y="1360" as="targetPoint" />
            <Array as="points">
              <mxPoint x="710" y="1350" />
              <mxPoint x="710" y="1350" />
            </Array>
          </mxGeometry>
        </mxCell>
        <mxCell id="tq8VSNoy9a_6PWsCeqps-35" value="Vá para um lugar seguro" style="rounded=1;whiteSpace=wrap;html=1;fontSize=12;glass=0;strokeWidth=1;shadow=0;fillColor=#dae8fc;gradientColor=#7ea6e0;strokeColor=#6c8ebf;" vertex="1" parent="WIyWlLk6GJQsqaUBKTNV-1">
          <mxGeometry x="660" y="1254.25" width="100" height="40" as="geometry" />
        </mxCell>
        <mxCell id="tq8VSNoy9a_6PWsCeqps-50" value="Sim" style="edgeStyle=orthogonalEdgeStyle;rounded=0;orthogonalLoop=1;jettySize=auto;html=1;" edge="1" parent="WIyWlLk6GJQsqaUBKTNV-1">
          <mxGeometry relative="1" as="geometry">
            <mxPoint x="195.65448275862082" y="1430.0049425287355" as="sourcePoint" />
            <mxPoint x="300.62" y="1498.54" as="targetPoint" />
            <Array as="points">
              <mxPoint x="195.62" y="1458.54" />
              <mxPoint x="196.62" y="1458.54" />
              <mxPoint x="196.62" y="1498.54" />
            </Array>
          </mxGeometry>
        </mxCell>
        <mxCell id="tq8VSNoy9a_6PWsCeqps-52" value="Não" style="edgeStyle=orthogonalEdgeStyle;rounded=0;orthogonalLoop=1;jettySize=auto;html=1;" edge="1" parent="WIyWlLk6GJQsqaUBKTNV-1" source="tq8VSNoy9a_6PWsCeqps-38">
          <mxGeometry relative="1" as="geometry">
            <mxPoint x="80" y="1420" as="targetPoint" />
            <Array as="points">
              <mxPoint x="80" y="1396" />
              <mxPoint x="80" y="1396" />
            </Array>
          </mxGeometry>
        </mxCell>
        <mxCell id="tq8VSNoy9a_6PWsCeqps-38" value="Tem todas as ferramentas?" style="rhombus;whiteSpace=wrap;html=1;fillColor=#dae8fc;strokeColor=#6c8ebf;" vertex="1" parent="WIyWlLk6GJQsqaUBKTNV-1">
          <mxGeometry x="140" y="1350" width="90" height="91.5" as="geometry" />
        </mxCell>
        <mxCell id="tq8VSNoy9a_6PWsCeqps-55" value="" style="edgeStyle=orthogonalEdgeStyle;rounded=0;orthogonalLoop=1;jettySize=auto;html=1;" edge="1" parent="WIyWlLk6GJQsqaUBKTNV-1" source="tq8VSNoy9a_6PWsCeqps-53" target="tq8VSNoy9a_6PWsCeqps-54">
          <mxGeometry relative="1" as="geometry" />
        </mxCell>
        <mxCell id="tq8VSNoy9a_6PWsCeqps-53" value="Pedir emprestado pra alguém" style="rounded=1;whiteSpace=wrap;html=1;fontSize=12;glass=0;strokeWidth=1;shadow=0;fillColor=#dae8fc;gradientColor=#7ea6e0;strokeColor=#6c8ebf;" vertex="1" parent="WIyWlLk6GJQsqaUBKTNV-1">
          <mxGeometry x="20" y="1430" width="125" height="40" as="geometry" />
        </mxCell>
        <mxCell id="tq8VSNoy9a_6PWsCeqps-57" value="" style="edgeStyle=orthogonalEdgeStyle;rounded=0;orthogonalLoop=1;jettySize=auto;html=1;" edge="1" parent="WIyWlLk6GJQsqaUBKTNV-1">
          <mxGeometry relative="1" as="geometry">
            <mxPoint x="99.99652173913026" y="1597.96347826087" as="sourcePoint" />
            <mxPoint x="290" y="1550" as="targetPoint" />
            <Array as="points">
              <mxPoint x="240" y="1598" />
            </Array>
          </mxGeometry>
        </mxCell>
        <mxCell id="tq8VSNoy9a_6PWsCeqps-66" value="Não" style="edgeStyle=orthogonalEdgeStyle;rounded=0;orthogonalLoop=1;jettySize=auto;html=1;" edge="1" parent="WIyWlLk6GJQsqaUBKTNV-1" source="tq8VSNoy9a_6PWsCeqps-54">
          <mxGeometry relative="1" as="geometry">
            <mxPoint x="120" y="2320" as="targetPoint" />
          </mxGeometry>
        </mxCell>
        <mxCell id="tq8VSNoy9a_6PWsCeqps-54" value="conseguiu?" style="rhombus;whiteSpace=wrap;html=1;fillColor=#dae8fc;strokeColor=#6c8ebf;" vertex="1" parent="WIyWlLk6GJQsqaUBKTNV-1">
          <mxGeometry x="75" y="1560" width="80" height="80" as="geometry" />
        </mxCell>
      </root>
    </mxGraphModel>
  </diagram>
</mxfile>
